[
  {
    "duration_time": "0.040000",
    "pts_time": "0.000000"
  },
  {
    "duration_time": "0.040000",
    "pts_time": "0.040000"
  },
  {
    "duration_time": "0.040000",
    "pts_time": "0.080000"
  },
  {
    "duration_time": "0.040000",
    "pts_time": "0.120000"
  },
  {
    "duration_time": "0.040000",
    "pts_time": "0.160000"
  },
  {
    "duration_time": "0.040000",
    "pts_time": "0.200000"
  },
  {
    "duration_time": "0.040000",
    "pts_time": "0.240000"
  },
  {
    "duration_time": "0.040000",
    "pts_time": "0.280000"
  },
  {
    "duration_time": "0.040000",
    "pts_time": "0.320000"
  },
  {
    "duration_time": "0.040000",
    "pts_time": "0.360000"
  },
  {
    "duration_time": "0.040000",
    "pts_time": "0.400000"
  },
  {
    "duration_time": "0.040000",
    "pts_time": "0.440000"
  },
  {
    "duration_time": "0.040000",
    "pts_time": "0.480000"
  },
  {
    "duration_time": "0.040000",
    "pts_time": "0.520000"
  },
  {
    "duration_time": "0.040000",
    "pts_time": "0.560000"
  },
  {
    "duration_time": "0.040000",
    "pts_time": "0.600000"
  },
  {
    "duration_time": "0.040000",
    "pts_time": "0.640000"
  },
  {
    "duration_time": "0.040000",
    "pts_time": "0.680000"
  },
  {
    "duration_time": "0.040000",
    "pts_time": "0.720000"
  },
  {
    "duration_time": "0.040000",
    "pts_time": "0.760000"
  },
  {
    "duration_time": "0.040000",
    "pts_time": "0.800000"
  },
  {
    "duration_time": "0.040000",
    "pts_time": "0.840000"
  },
  {
    "duration_time": "0.040000",
    "pts_time": "0.880000"
  },
  {
    "duration_time": "0.040000",
    "pts_time": "0.920000"
  },
  {
    "duration_time": "0.040000",
    "pts_time": "0.960000"
  },
  {
    "duration_time": "0.040000",
    "pts_time": "1.000000"
  },
  {
    "duration_time": "0.040000",
    "pts_time": "1.040000"
  },
  {
    "duration_time": "0.040000",
    "pts_time": "1.080000"
  },
  {
    "duration_time": "0.040000",
    "pts_time": "1.120000"
  },
  {
    "duration_time": "0.040000",
    "pts_time": "1.160000"
  },
  {
    "duration_time": "0.040000",
    "pts_time": "1.200000"
  },
  {
    "duration_time": "0.040000",
    "pts_time": "1.240000"
  },
  {
    "duration_time": "0.040000",
    "pts_time": "1.280000"
  },
  {
    "duration_time": "0.040000",
    "pts_time": "1.320000"
  },
  {
    "duration_time": "0.040000",
    "pts_time": "1.360000"
  },
  {
    "duration_time": "0.040000",
    "pts_time": "1.400000"
  },
  {
    "duration_time": "0.040000",
    "pts_time": "1.440000"
  },
  {
    "duration_time": "0.040000",
    "pts_time": "1.480000"
  },
  {
    "duration_time": "0.040000",
    "pts_time": "1.520000"
  },
  {
    "duration_time": "0.040000",
    "pts_time": "1.560000"
  },
  {
    "duration_time": "0.040000",
    "pts_time": "1.600000"
  },
  {
    "duration_time": "0.040000",
    "pts_time": "1.640000"
  },
  {
    "duration_time": "0.040000",
    "pts_time": "1.680000"
  },
  {
    "duration_time": "0.040000",
    "pts_time": "1.720000"
  },
  {
    "duration_time": "0.040000",
    "pts_time": "1.760000"
  },
  {
    "duration_time": "0.040000",
    "pts_time": "1.800000"
  },
  {
    "duration_time": "0.040000",
    "pts_time": "1.840000"
  },
  {
    "duration_time": "0.040000",
    "pts_time": "1.880000"
  },
  {
    "duration_time": "0.040000",
    "pts_time": "1.920000"
  },
  {
    "duration_time": "0.040000",
    "pts_time": "1.960000"
  },
  {
    "duration_time": "0.040000",
    "pts_time": "2.000000"
  },
  {
    "duration_time": "0.040000",
    "pts_time": "2.040000"
  },
  {
    "duration_time": "0.040000",
    "pts_time": "2.080000"
  },
  {
    "duration_time": "0.040000",
    "pts_time": "2.120000"
  },
  {
    "duration_time": "0.040000",
    "pts_time": "2.160000"
  },
  {
    "duration_time": "0.040000",
    "pts_time": "2.200000"
  },
  {
    "duration_time": "0.040000",
    "pts_time": "2.240000"
  },
  {
    "duration_time": "0.040000",
    "pts_time": "2.280000"
  },
  {
    "duration_time": "0.040000",
    "pts_time": "2.320000"
  },
  {
    "duration_time": "0.040000",
    "pts_time": "2.360000"
  },
  {
    "duration_time": "0.040000",
    "pts_time": "2.400000"
  },
  {
    "duration_time": "0.040000",
    "pts_time": "2.440000"
  },
  {
    "duration_time": "0.040000",
    "pts_time": "2.480000"
  },
  {
    "duration_time": "0.040000",
    "pts_time": "2.520000"
  },
  {
    "duration_time": "0.040000",
    "pts_time": "2.560000"
  },
  {
    "duration_time": "0.040000",
    "pts_time": "2.600000"
  },
  {
    "duration_time": "0.040000",
    "pts_time": "2.640000"
  },
  {
    "duration_time": "0.040000",
    "pts_time": "2.680000"
  },
  {
    "duration_time": "0.040000",
    "pts_time": "2.720000"
  },
  {
    "duration_time": "0.040000",
    "pts_time": "2.760000"
  },
  {
    "duration_time": "0.040000",
    "pts_time": "2.800000"
  },
  {
    "duration_time": "0.040000",
    "pts_time": "2.840000"
  },
  {
    "duration_time": "0.040000",
    "pts_time": "2.880000"
  },
  {
    "duration_time": "0.040000",
    "pts_time": "2.920000"
  },
  {
    "duration_time": "0.040000",
    "pts_time": "2.960000"
  },
  {
    "duration_time": "0.040000",
    "pts_time": "3.000000"
  },
  {
    "duration_time": "0.040000",
    "pts_time": "3.040000"
  },
  {
    "duration_time": "0.040000",
    "pts_time": "3.080000"
  },
  {
    "duration_time": "0.040000",
    "pts_time": "3.120000"
  },
  {
    "duration_time": "0.040000",
    "pts_time": "3.160000"
  },
  {
    "duration_time": "0.040000",
    "pts_time": "3.200000"
  },
  {
    "duration_time": "0.040000",
    "pts_time": "3.240000"
  },
  {
    "duration_time": "0.040000",
    "pts_time": "3.280000"
  },
  {
    "duration_time": "0.040000",
    "pts_time": "3.320000"
  },
  {
    "duration_time": "0.040000",
    "pts_time": "3.360000"
  },
  {
    "duration_time": "0.040000",
    "pts_time": "3.400000"
  },
  {
    "duration_time": "0.040000",
    "pts_time": "3.440000"
  },
  {
    "duration_time": "0.040000",
    "pts_time": "3.480000"
  },
  {
    "duration_time": "0.040000",
    "pts_time": "3.520000"
  },
  {
    "duration_time": "0.040000",
    "pts_time": "3.560000"
  },
  {
    "duration_time": "0.040000",
    "pts_time": "3.600000"
  },
  {
    "duration_time": "0.040000",
    "pts_time": "3.640000"
  },
  {
    "duration_time": "0.040000",
    "pts_time": "3.680000"
  },
  {
    "duration_time": "0.040000",
    "pts_time": "3.720000"
  },
  {
    "duration_time": "0.040000",
    "pts_time": "3.760000"
  },
  {
    "duration_time": "0.040000",
    "pts_time": "3.800000"
  },
  {
    "duration_time": "0.040000",
    "pts_time": "3.840000"
  },
  {
    "duration_time": "0.040000",
    "pts_time": "3.880000"
  },
  {
    "duration_time": "0.040000",
    "pts_time": "3.920000"
  },
  {
    "duration_time": "0.040000",
    "pts_time": "3.960000"
  },
  {
    "duration_time": "0.040000",
    "pts_time": "4.000000"
  },
  {
    "duration_time": "0.040000",
    "pts_time": "4.040000"
  },
  {
    "duration_time": "0.040000",
    "pts_time": "4.080000"
  },
  {
    "duration_time": "0.040000",
    "pts_time": "4.120000"
  },
  {
    "duration_time": "0.040000",
    "pts_time": "4.160000"
  },
  {
    "duration_time": "0.040000",
    "pts_time": "4.200000"
  },
  {
    "duration_time": "0.040000",
    "pts_time": "4.240000"
  },
  {
    "duration_time": "0.040000",
    "pts_time": "4.280000"
  },
  {
    "duration_time": "0.040000",
    "pts_time": "4.320000"
  },
  {
    "duration_time": "0.040000",
    "pts_time": "4.360000"
  },
  {
    "duration_time": "0.040000",
    "pts_time": "4.400000"
  },
  {
    "duration_time": "0.040000",
    "pts_time": "4.440000"
  },
  {
    "duration_time": "0.040000",
    "pts_time": "4.480000"
  },
  {
    "duration_time": "0.040000",
    "pts_time": "4.520000"
  },
  {
    "duration_time": "0.040000",
    "pts_time": "4.560000"
  },
  {
    "duration_time": "0.040000",
    "pts_time": "4.600000"
  },
  {
    "duration_time": "0.040000",
    "pts_time": "4.640000"
  },
  {
    "duration_time": "0.040000",
    "pts_time": "4.680000"
  },
  {
    "duration_time": "0.040000",
    "pts_time": "4.720000"
  },
  {
    "duration_time": "0.040000",
    "pts_time": "4.760000"
  },
  {
    "duration_time": "0.040000",
    "pts_time": "4.800000"
  },
  {
    "duration_time": "0.040000",
    "pts_time": "4.840000"
  },
  {
    "duration_time": "0.040000",
    "pts_time": "4.880000"
  },
  {
    "duration_time": "0.040000",
    "pts_time": "4.920000"
  },
  {
    "duration_time": "0.040000",
    "pts_time": "4.960000"
  },
  {
    "duration_time": "0.040000",
    "pts_time": "5.000000"
  },
  {
    "duration_time": "0.040000",
    "pts_time": "5.040000"
  },
  {
    "duration_time": "0.040000",
    "pts_time": "5.080000"
  },
  {
    "duration_time": "0.040000",
    "pts_time": "5.120000"
  },
  {
    "duration_time": "0.040000",
    "pts_time": "5.160000"
  },
  {
    "duration_time": "0.040000",
    "pts_time": "5.200000"
  },
  {
    "duration_time": "0.040000",
    "pts_time": "5.240000"
  },
  {
    "duration_time": "0.040000",
    "pts_time": "5.280000"
  },
  {
    "duration_time": "0.040000",
    "pts_time": "5.320000"
  },
  {
    "duration_time": "0.040000",
    "pts_time": "5.360000"
  },
  {
    "duration_time": "0.040000",
    "pts_time": "5.400000"
  },
  {
    "duration_time": "0.040000",
    "pts_time": "5.440000"
  },
  {
    "duration_time": "0.040000",
    "pts_time": "5.480000"
  },
  {
    "duration_time": "0.040000",
    "pts_time": "5.520000"
  },
  {
    "duration_time": "0.040000",
    "pts_time": "5.560000"
  },
  {
    "duration_time": "0.040000",
    "pts_time": "5.600000"
  },
  {
    "duration_time": "0.040000",
    "pts_time": "5.640000"
  },
  {
    "duration_time": "0.040000",
    "pts_time": "5.680000"
  },
  {
    "duration_time": "0.040000",
    "pts_time": "5.720000"
  },
  {
    "duration_time": "0.040000",
    "pts_time": "5.760000"
  },
  {
    "duration_time": "0.040000",
    "pts_time": "5.800000"
  },
  {
    "duration_time": "0.040000",
    "pts_time": "5.840000"
  },
  {
    "duration_time": "0.040000",
    "pts_time": "5.880000"
  },
  {
    "duration_time": "0.040000",
    "pts_time": "5.920000"
  },
  {
    "duration_time": "0.040000",
    "pts_time": "5.960000"
  },
  {
    "duration_time": "0.040000",
    "pts_time": "6.000000"
  },
  {
    "duration_time": "0.040000",
    "pts_time": "6.040000"
  },
  {
    "duration_time": "0.040000",
    "pts_time": "6.080000"
  },
  {
    "duration_time": "0.040000",
    "pts_time": "6.120000"
  },
  {
    "duration_time": "0.040000",
    "pts_time": "6.160000"
  },
  {
    "duration_time": "0.040000",
    "pts_time": "6.200000"
  },
  {
    "duration_time": "0.040000",
    "pts_time": "6.240000"
  },
  {
    "duration_time": "0.040000",
    "pts_time": "6.280000"
  },
  {
    "duration_time": "0.040000",
    "pts_time": "6.320000"
  },
  {
    "duration_time": "0.040000",
    "pts_time": "6.360000"
  },
  {
    "duration_time": "0.040000",
    "pts_time": "6.400000"
  },
  {
    "duration_time": "0.040000",
    "pts_time": "6.440000"
  },
  {
    "duration_time": "0.040000",
    "pts_time": "6.480000"
  },
  {
    "duration_time": "0.040000",
    "pts_time": "6.520000"
  },
  {
    "duration_time": "0.040000",
    "pts_time": "6.560000"
  },
  {
    "duration_time": "0.040000",
    "pts_time": "6.600000"
  },
  {
    "duration_time": "0.040000",
    "pts_time": "6.640000"
  },
  {
    "duration_time": "0.040000",
    "pts_time": "6.680000"
  },
  {
    "duration_time": "0.040000",
    "pts_time": "6.720000"
  },
  {
    "duration_time": "0.040000",
    "pts_time": "6.760000"
  },
  {
    "duration_time": "0.040000",
    "pts_time": "6.800000"
  },
  {
    "duration_time": "0.040000",
    "pts_time": "6.840000"
  },
  {
    "duration_time": "0.040000",
    "pts_time": "6.880000"
  },
  {
    "duration_time": "0.040000",
    "pts_time": "6.920000"
  },
  {
    "duration_time": "0.040000",
    "pts_time": "6.960000"
  },
  {
    "duration_time": "0.040000",
    "pts_time": "7.000000"
  },
  {
    "duration_time": "0.040000",
    "pts_time": "7.040000"
  },
  {
    "duration_time": "0.040000",
    "pts_time": "7.080000"
  },
  {
    "duration_time": "0.040000",
    "pts_time": "7.120000"
  },
  {
    "duration_time": "0.040000",
    "pts_time": "7.160000"
  },
  {
    "duration_time": "0.040000",
    "pts_time": "7.200000"
  },
  {
    "duration_time": "0.040000",
    "pts_time": "7.240000"
  },
  {
    "duration_time": "0.040000",
    "pts_time": "7.280000"
  },
  {
    "duration_time": "0.040000",
    "pts_time": "7.320000"
  },
  {
    "duration_time": "0.040000",
    "pts_time": "7.360000"
  },
  {
    "duration_time": "0.040000",
    "pts_time": "7.400000"
  },
  {
    "duration_time": "0.040000",
    "pts_time": "7.440000"
  },
  {
    "duration_time": "0.040000",
    "pts_time": "7.480000"
  },
  {
    "duration_time": "0.040000",
    "pts_time": "7.520000"
  },
  {
    "duration_time": "0.040000",
    "pts_time": "7.560000"
  },
  {
    "duration_time": "0.040000",
    "pts_time": "7.600000"
  },
  {
    "duration_time": "0.040000",
    "pts_time": "7.640000"
  },
  {
    "duration_time": "0.040000",
    "pts_time": "7.680000"
  },
  {
    "duration_time": "0.040000",
    "pts_time": "7.720000"
  },
  {
    "duration_time": "0.040000",
    "pts_time": "7.760000"
  },
  {
    "duration_time": "0.040000",
    "pts_time": "7.800000"
  },
  {
    "duration_time": "0.040000",
    "pts_time": "7.840000"
  },
  {
    "duration_time": "0.040000",
    "pts_time": "7.880000"
  },
  {
    "duration_time": "0.040000",
    "pts_time": "7.920000"
  },
  {
    "duration_time": "0.040000",
    "pts_time": "7.960000"
  },
  {
    "duration_time": "0.040000",
    "pts_time": "8.000000"
  },
  {
    "duration_time": "0.040000",
    "pts_time": "8.040000"
  },
  {
    "duration_time": "0.040000",
    "pts_time": "8.080000"
  },
  {
    "duration_time": "0.040000",
    "pts_time": "8.120000"
  },
  {
    "duration_time": "0.040000",
    "pts_time": "8.160000"
  },
  {
    "duration_time": "0.040000",
    "pts_time": "8.200000"
  },
  {
    "duration_time": "0.040000",
    "pts_time": "8.240000"
  },
  {
    "duration_time": "0.040000",
    "pts_time": "8.280000"
  },
  {
    "duration_time": "0.040000",
    "pts_time": "8.320000"
  },
  {
    "duration_time": "0.040000",
    "pts_time": "8.360000"
  },
  {
    "duration_time": "0.040000",
    "pts_time": "8.400000"
  },
  {
    "duration_time": "0.040000",
    "pts_time": "8.440000"
  },
  {
    "duration_time": "0.040000",
    "pts_time": "8.480000"
  },
  {
    "duration_time": "0.040000",
    "pts_time": "8.520000"
  },
  {
    "duration_time": "0.040000",
    "pts_time": "8.560000"
  },
  {
    "duration_time": "0.040000",
    "pts_time": "8.600000"
  },
  {
    "duration_time": "0.040000",
    "pts_time": "8.640000"
  },
  {
    "duration_time": "0.040000",
    "pts_time": "8.680000"
  },
  {
    "duration_time": "0.040000",
    "pts_time": "8.720000"
  },
  {
    "duration_time": "0.040000",
    "pts_time": "8.760000"
  },
  {
    "duration_time": "0.040000",
    "pts_time": "8.800000"
  },
  {
    "duration_time": "0.040000",
    "pts_time": "8.840000"
  },
  {
    "duration_time": "0.040000",
    "pts_time": "8.880000"
  },
  {
    "duration_time": "0.040000",
    "pts_time": "8.920000"
  },
  {
    "duration_time": "0.040000",
    "pts_time": "8.960000"
  },
  {
    "duration_time": "0.040000",
    "pts_time": "9.000000"
  },
  {
    "duration_time": "0.040000",
    "pts_time": "9.040000"
  },
  {
    "duration_time": "0.040000",
    "pts_time": "9.080000"
  },
  {
    "duration_time": "0.040000",
    "pts_time": "9.120000"
  },
  {
    "duration_time": "0.040000",
    "pts_time": "9.160000"
  },
  {
    "duration_time": "0.040000",
    "pts_time": "9.200000"
  },
  {
    "duration_time": "0.040000",
    "pts_time": "9.240000"
  },
  {
    "duration_time": "0.040000",
    "pts_time": "9.280000"
  },
  {
    "duration_time": "0.040000",
    "pts_time": "9.320000"
  },
  {
    "duration_time": "0.040000",
    "pts_time": "9.360000"
  },
  {
    "duration_time": "0.040000",
    "pts_time": "9.400000"
  },
  {
    "duration_time": "0.040000",
    "pts_time": "9.440000"
  },
  {
    "duration_time": "0.040000",
    "pts_time": "9.480000"
  },
  {
    "duration_time": "0.040000",
    "pts_time": "9.520000"
  },
  {
    "duration_time": "0.040000",
    "pts_time": "9.560000"
  },
  {
    "duration_time": "0.040000",
    "pts_time": "9.600000"
  },
  {
    "duration_time": "0.040000",
    "pts_time": "9.640000"
  },
  {
    "duration_time": "0.040000",
    "pts_time": "9.680000"
  },
  {
    "duration_time": "0.040000",
    "pts_time": "9.720000"
  },
  {
    "duration_time": "0.040000",
    "pts_time": "9.760000"
  },
  {
    "duration_time": "0.040000",
    "pts_time": "9.800000"
  },
  {
    "duration_time": "0.040000",
    "pts_time": "9.840000"
  },
  {
    "duration_time": "0.040000",
    "pts_time": "9.880000"
  },
  {
    "duration_time": "0.040000",
    "pts_time": "9.920000"
  },
  {
    "duration_time": "0.040000",
    "pts_time": "9.960000"
  },
  {
    "duration_time": "0.040000",
    "pts_time": "10.000000"
  },
  {
    "duration_time": "0.040000",
    "pts_time": "10.040000"
  },
  {
    "duration_time": "0.040000",
    "pts_time": "10.080000"
  },
  {
    "duration_time": "0.040000",
    "pts_time": "10.120000"
  },
  {
    "duration_time": "0.040000",
    "pts_time": "10.160000"
  },
  {
    "duration_time": "0.040000",
    "pts_time": "10.200000"
  },
  {
    "duration_time": "0.040000",
    "pts_time": "10.240000"
  },
  {
    "duration_time": "0.040000",
    "pts_time": "10.280000"
  },
  {
    "duration_time": "0.040000",
    "pts_time": "10.320000"
  },
  {
    "duration_time": "0.040000",
    "pts_time": "10.360000"
  },
  {
    "duration_time": "0.040000",
    "pts_time": "10.400000"
  },
  {
    "duration_time": "0.040000",
    "pts_time": "10.440000"
  },
  {
    "duration_time": "0.040000",
    "pts_time": "10.480000"
  },
  {
    "duration_time": "0.040000",
    "pts_time": "10.520000"
  },
  {
    "duration_time": "0.040000",
    "pts_time": "10.560000"
  },
  {
    "duration_time": "0.040000",
    "pts_time": "10.600000"
  },
  {
    "duration_time": "0.040000",
    "pts_time": "10.640000"
  },
  {
    "duration_time": "0.040000",
    "pts_time": "10.680000"
  },
  {
    "duration_time": "0.040000",
    "pts_time": "10.720000"
  },
  {
    "duration_time": "0.040000",
    "pts_time": "10.760000"
  },
  {
    "duration_time": "0.040000",
    "pts_time": "10.800000"
  },
  {
    "duration_time": "0.040000",
    "pts_time": "10.840000"
  },
  {
    "duration_time": "0.040000",
    "pts_time": "10.880000"
  },
  {
    "duration_time": "0.040000",
    "pts_time": "10.920000"
  },
  {
    "duration_time": "0.040000",
    "pts_time": "10.960000"
  },
  {
    "duration_time": "0.040000",
    "pts_time": "11.000000"
  },
  {
    "duration_time": "0.040000",
    "pts_time": "11.040000"
  },
  {
    "duration_time": "0.040000",
    "pts_time": "11.080000"
  },
  {
    "duration_time": "0.040000",
    "pts_time": "11.120000"
  },
  {
    "duration_time": "0.040000",
    "pts_time": "11.160000"
  },
  {
    "duration_time": "0.040000",
    "pts_time": "11.200000"
  },
  {
    "duration_time": "0.040000",
    "pts_time": "11.240000"
  },
  {
    "duration_time": "0.040000",
    "pts_time": "11.280000"
  },
  {
    "duration_time": "0.040000",
    "pts_time": "11.320000"
  },
  {
    "duration_time": "0.040000",
    "pts_time": "11.360000"
  },
  {
    "duration_time": "0.040000",
    "pts_time": "11.400000"
  },
  {
    "duration_time": "0.040000",
    "pts_time": "11.440000"
  },
  {
    "duration_time": "0.040000",
    "pts_time": "11.480000"
  },
  {
    "duration_time": "0.040000",
    "pts_time": "11.520000"
  },
  {
    "duration_time": "0.040000",
    "pts_time": "11.560000"
  },
  {
    "duration_time": "0.040000",
    "pts_time": "11.600000"
  },
  {
    "duration_time": "0.040000",
    "pts_time": "11.640000"
  },
  {
    "duration_time": "0.040000",
    "pts_time": "11.680000"
  },
  {
    "duration_time": "0.040000",
    "pts_time": "11.720000"
  },
  {
    "duration_time": "0.040000",
    "pts_time": "11.760000"
  },
  {
    "duration_time": "0.040000",
    "pts_time": "11.800000"
  },
  {
    "duration_time": "0.040000",
    "pts_time": "11.840000"
  },
  {
    "duration_time": "0.040000",
    "pts_time": "11.880000"
  },
  {
    "duration_time": "0.040000",
    "pts_time": "11.920000"
  },
  {
    "duration_time": "0.040000",
    "pts_time": "11.960000"
  },
  {
    "duration_time": "0.040000",
    "pts_time": "12.000000"
  },
  {
    "duration_time": "0.040000",
    "pts_time": "12.040000"
  },
  {
    "duration_time": "0.040000",
    "pts_time": "12.080000"
  },
  {
    "duration_time": "0.040000",
    "pts_time": "12.120000"
  },
  {
    "duration_time": "0.040000",
    "pts_time": "12.160000"
  },
  {
    "duration_time": "0.040000",
    "pts_time": "12.200000"
  },
  {
    "duration_time": "0.040000",
    "pts_time": "12.240000"
  },
  {
    "duration_time": "0.040000",
    "pts_time": "12.280000"
  },
  {
    "duration_time": "0.040000",
    "pts_time": "12.320000"
  },
  {
    "duration_time": "0.040000",
    "pts_time": "12.360000"
  },
  {
    "duration_time": "0.040000",
    "pts_time": "12.400000"
  },
  {
    "duration_time": "0.040000",
    "pts_time": "12.440000"
  },
  {
    "duration_time": "0.040000",
    "pts_time": "12.480000"
  },
  {
    "duration_time": "0.040000",
    "pts_time": "12.520000"
  },
  {
    "duration_time": "0.040000",
    "pts_time": "12.560000"
  },
  {
    "duration_time": "0.040000",
    "pts_time": "12.600000"
  },
  {
    "duration_time": "0.040000",
    "pts_time": "12.640000"
  },
  {
    "duration_time": "0.040000",
    "pts_time": "12.680000"
  },
  {
    "duration_time": "0.040000",
    "pts_time": "12.720000"
  },
  {
    "duration_time": "0.040000",
    "pts_time": "12.760000"
  },
  {
    "duration_time": "0.040000",
    "pts_time": "12.800000"
  },
  {
    "duration_time": "0.040000",
    "pts_time": "12.840000"
  },
  {
    "duration_time": "0.040000",
    "pts_time": "12.880000"
  },
  {
    "duration_time": "0.040000",
    "pts_time": "12.920000"
  },
  {
    "duration_time": "0.040000",
    "pts_time": "12.960000"
  }
]
